<mxfile host="65bd71144e">
    <diagram id="CEq0DkR0caGXi7iFeCsH" name="第 1 页">
        <mxGraphModel dx="2829" dy="1620" grid="1" gridSize="10" guides="1" tooltips="1" connect="1" arrows="1" fold="1" page="1" pageScale="1" pageWidth="1600" pageHeight="900" math="0" shadow="0">
            <root>
                <mxCell id="0"/>
                <mxCell id="1" parent="0"/>
                <mxCell id="2" value="" style="strokeWidth=1;shadow=0;dashed=0;align=center;html=1;shape=mxgraph.mockup.containers.browserWindow;rSize=0;strokeColor=#666666;strokeColor2=#008cff;strokeColor3=#c4c4c4;mainText=,;recursiveResize=0;" vertex="1" parent="1">
                    <mxGeometry x="10" width="1930" height="1080" as="geometry"/>
                </mxCell>
                <mxCell id="3" value="Easy社团" style="strokeWidth=1;shadow=0;dashed=0;align=center;html=1;shape=mxgraph.mockup.containers.anchor;fontSize=17;fontColor=#666666;align=left;" vertex="1" parent="2">
                    <mxGeometry x="60" y="12" width="110" height="26" as="geometry"/>
                </mxCell>
                <mxCell id="4" value="http://easy.rolin.icu/" style="strokeWidth=1;shadow=0;dashed=0;align=center;html=1;shape=mxgraph.mockup.containers.anchor;rSize=0;fontSize=17;fontColor=#666666;align=left;" vertex="1" parent="2">
                    <mxGeometry x="130" y="60" width="250" height="26" as="geometry"/>
                </mxCell>
                <UserObject label="注册/登录" id="5">
                    <mxCell style="text;html=1;strokeColor=none;fillColor=none;whiteSpace=wrap;align=center;verticalAlign=middle;fontColor=#0000EE;fontStyle=4;fontSize=19;" vertex="1" parent="2">
                        <mxGeometry x="1660" y="170" width="140" height="40" as="geometry"/>
                    </mxCell>
                </UserObject>
                <mxCell id="6" value="" style="rounded=0;whiteSpace=wrap;html=1;fontSize=19;labelBackgroundColor=none;labelBorderColor=none;fillColor=#FFFFFF;" vertex="1" parent="2">
                    <mxGeometry y="210" width="1920" height="775" as="geometry"/>
                </mxCell>
                <mxCell id="7" value="" style="dashed=0;outlineConnect=0;html=1;align=center;labelPosition=center;verticalLabelPosition=bottom;verticalAlign=top;shape=mxgraph.weblogos.xanga;fillColor=#000000;strokeColor=none;labelBackgroundColor=none;fontSize=19;fontColor=#f0f0f0;" vertex="1" parent="2">
                    <mxGeometry x="42.31" y="121" width="147.37" height="80" as="geometry"/>
                </mxCell>
                <mxCell id="8" value="" style="dashed=0;outlineConnect=0;html=1;align=center;labelPosition=center;verticalLabelPosition=bottom;verticalAlign=top;shape=mxgraph.weblogos.viddler;fillColor=#1896E0;gradientColor=#06253F;labelBackgroundColor=none;fontSize=19;fontColor=#f0f0f0;" vertex="1" parent="2">
                    <mxGeometry x="188.68" y="522.52" width="580" height="149.95" as="geometry"/>
                </mxCell>
                <mxCell id="22" value="轮播图" style="html=1;shadow=0;dashed=0;strokeColor=none;strokeWidth=1;fillColor=#777777;fontColor=#555555;whiteSpace=wrap;align=center;verticalAlign=middle;fontStyle=0;fontSize=40;labelBackgroundColor=none;" vertex="1" parent="2">
                    <mxGeometry x="950" y="300" width="910" height="420" as="geometry"/>
                </mxCell>
                <mxCell id="23" value="" style="html=1;verticalLabelPosition=bottom;labelBackgroundColor=#ffffff;verticalAlign=top;shadow=0;dashed=0;strokeWidth=4;shape=mxgraph.ios7.misc.more;strokeColor=#a0a0a0;" vertex="1" parent="22">
                    <mxGeometry x="1" y="0.5" width="7" height="14" relative="1" as="geometry">
                        <mxPoint x="-50" y="-7" as="offset"/>
                    </mxGeometry>
                </mxCell>
                <mxCell id="24" value="" style="flipH=1;html=1;verticalLabelPosition=bottom;labelBackgroundColor=#ffffff;verticalAlign=top;shadow=0;dashed=0;strokeWidth=4;shape=mxgraph.ios7.misc.more;strokeColor=#a0a0a0;" vertex="1" parent="22">
                    <mxGeometry y="0.5" width="7" height="14" relative="1" as="geometry">
                        <mxPoint x="43" y="-7" as="offset"/>
                    </mxGeometry>
                </mxCell>
                <mxCell id="25" value="" style="html=1;shadow=0;strokeColor=none;fillColor=#ffffff;" vertex="1" parent="22">
                    <mxGeometry x="0.5" y="1" width="30" height="4" relative="1" as="geometry">
                        <mxPoint x="-50" y="-20" as="offset"/>
                    </mxGeometry>
                </mxCell>
                <mxCell id="26" value="" style="html=1;shadow=0;strokeColor=none;fillColor=#BBBBBB;" vertex="1" parent="22">
                    <mxGeometry x="0.5" y="1" width="30" height="4" relative="1" as="geometry">
                        <mxPoint x="-15" y="-20" as="offset"/>
                    </mxGeometry>
                </mxCell>
                <mxCell id="27" value="" style="html=1;shadow=0;strokeColor=none;fillColor=#BBBBBB;" vertex="1" parent="22">
                    <mxGeometry x="0.5" y="1" width="30" height="4" relative="1" as="geometry">
                        <mxPoint x="20" y="-20" as="offset"/>
                    </mxGeometry>
                </mxCell>
                <mxCell id="28" value="&lt;font style=&quot;font-size: 16px&quot;&gt;&lt;b&gt;这是一个公告屏幕&lt;/b&gt;&lt;/font&gt;&lt;br style=&quot;font-size: 14px&quot;&gt;&lt;br style=&quot;font-size: 14px&quot;&gt;这里是公告描述." style="html=1;shadow=0;strokeColor=none;fillColor=none;resizeWidth=1;fontColor=#FFFFFF;fontSize=14;" vertex="1" parent="22">
                    <mxGeometry y="1" width="910" height="60" relative="1" as="geometry">
                        <mxPoint y="-90" as="offset"/>
                    </mxGeometry>
                </mxCell>
                <mxCell id="29" value="进入Easy社团" style="html=1;shadow=0;dashed=0;shape=mxgraph.bootstrap.rrect;rSize=5;strokeColor=none;strokeWidth=1;fillColor=#0085FC;fontColor=#FFFFFF;whiteSpace=wrap;align=center;verticalAlign=middle;spacingLeft=0;fontStyle=0;fontSize=16;spacing=5;labelBackgroundColor=none;" vertex="1" parent="2">
                    <mxGeometry x="1650" y="780" width="200" height="70" as="geometry"/>
                </mxCell>
            </root>
        </mxGraphModel>
    </diagram>
</mxfile>